<?xml version="1.0" encoding="UTF-8"?>
<!DOCTYPE svg  PUBLIC '-//W3C//DTD SVG 1.1//EN'  'http://www.w3.org/Graphics/SVG/1.1/DTD/svg11.dtd'>
<svg version="1.1" xmlns="http://www.w3.org/2000/svg">
<defs>
<font id="GTAmerica-ExpandedLight" horiz-adv-x="0">
<font-face font-family="GT America Expanded Light" font-stretch="ultra-expanded" font-weight="300" ascent="785" bbox="-532 -214 1438 938" cap-height="710" descent="-215" panose-1="0 0 4 7 0 0 0 0 0 0" underline-position="-100" underline-thickness="50" unicode-range="U+0020-2044" units-per-em="1000" x-height="500"/>
<missing-glyph/>
<glyph glyph-name="space" horiz-adv-x="431" unicode=" "/>
<glyph d="M130 725h99l-21 -525h-57zM237 0h-115v107h115v-107z" glyph-name="exclam" horiz-adv-x="359" unicode="!"/>
<glyph d="M255 710h82l-16 -244h-51zM98 710h82l-16 -244h-51z" glyph-name="quotedbl" horiz-adv-x="434" unicode='"'/>
<glyph d="M628 433l-34 -171h182v-54h-193l-41 -208h-68l41 208h-260l-41 -208h-68l42 208h-167v54h177l35 171h-172v54h183l41 207h67l-41 -207h260l41 207h68l-41 -207h171v-54h-182zM560 433h-260l-34 -171h260z" glyph-name="numbersign" horiz-adv-x="831" unicode="#"/>
<glyph d="M753 317.5q61 -47.5 61 -137.5q0 -97 -90 -148.5t-261 -51.5h-6v-81h-53v83q-158 8 -247 64t-114 161l87 12q35 -153 274 -170v273l-88 8q-243 23 -243 188q0 91 86.5 143t244.5 54v81h53v-82q154 -4 234.5 -52.5t108.5 -151.5l-84 -18q-22 79 -82 116t-177 41v-260 l104 -10q131 -14 192 -61.5zM404 394v256q-127 -1 -186.5 -32.5t-59.5 -96.5q0 -55 47 -83.5t152 -39.5zM666 79q64 32 64 101q0 59 -46 90t-151 41l-76 7v-271h7q138 0 202 32z" glyph-name="dollar" horiz-adv-x="875" unicode="$"/>
<glyph d="M770 720h81l-601 -741h-80zM91.5 404q-58.5 50 -58.5 132q0 53 26.5 93.5t75 63t111.5 22.5q62 0 110.5 -23t76 -64.5t27.5 -94.5t-27 -93.5t-75.5 -63t-110.5 -22.5q-97 0 -155.5 50zM354.5 443q40.5 33 40.5 90q0 58 -40.5 92t-108.5 34t-109 -33.5t-41 -89.5 q0 -59 41 -92.5t110 -33.5q67 0 107.5 33zM626.5 32q-58.5 50 -58.5 132q0 53 26.5 93.5t75 63t111.5 22.5q62 0 110.5 -23t75.5 -64t27 -95q0 -53 -27 -93.5t-75.5 -63t-109.5 -22.5q-97 0 -155.5 50zM889.5 71q40.5 33 40.5 90q0 58 -40.5 92t-108.5 34t-109 -33.5 t-41 -89.5q0 -59 41 -92.5t110 -33.5q67 0 107.5 33z" glyph-name="percent" horiz-adv-x="1027" unicode="%"/>
<glyph d="M860 62v-68q-32 -12 -73 -12q-47 0 -97 22t-95 57q-59 -41 -130.5 -63t-151.5 -22q-93 0 -158 27.5t-98 73.5t-33 102q0 70 46 115t133 82l16 7q-60 53 -87 94t-27 93q0 48 26 85.5t72.5 58.5t107.5 21q95 0 152.5 -44t57.5 -116q0 -65 -42 -116t-107 -78l-29 -12 l258 -216q48 47 78 111t40 142l74 -9q-8 -82 -43.5 -156.5t-94.5 -131.5q39 -30 72.5 -43t75.5 -13q31 0 57 9zM192.5 522.5q8.5 -21.5 31 -46.5t67.5 -63l34 14q55 22 86.5 60t31.5 87t-34 75.5t-100 26.5q-60 0 -92.5 -26.5t-32.5 -77.5q0 -28 8.5 -49.5zM164 79.5 q62 -37.5 154 -37.5q127 0 225 63l-272 233l-28 -12q-73 -31 -107 -63.5t-34 -78.5q0 -67 62 -104.5z" glyph-name="ampersand" horiz-adv-x="875" unicode="&amp;"/>
<glyph d="M98 710h82l-16 -244h-51z" glyph-name="quotesingle" horiz-adv-x="278" unicode="'"/>
<glyph d="M123.5 73.5q-60.5 122.5 -60.5 249.5t60.5 248t175.5 204l56 -36q-212 -171 -212 -416q0 -246 212 -420l-56 -36q-115 84 -175.5 206.5z" glyph-name="parenleft" horiz-adv-x="366" unicode="("/>
<glyph d="M12 -97q211 174 211 420t-211 416l55 36q115 -83 175.5 -204t60.5 -248t-60.5 -249.5t-174.5 -206.5z" glyph-name="parenright" horiz-adv-x="366" unicode=")"/>
<glyph d="M225 557l91 -100l-52 -39l-72 119l-72 -119l-52 39l92 100l-129 29l21 62l121 -54l-14 129h66l-13 -129l121 54l21 -62z" glyph-name="asterisk" horiz-adv-x="384" unicode="*"/>
<glyph d="M623 298h-244v-207h-74v207h-243v63h243v195h74v-195h244v-63z" glyph-name="plus" horiz-adv-x="685" unicode="+"/>
<glyph d="M98 -92q35 12 49 34.5t14 55.5v2h-63v119h117v-102q0 -63 -22.5 -98.5t-74.5 -52.5z" glyph-name="comma" horiz-adv-x="312" unicode=","/>
<glyph d="M569 312v-67h-507v67h507z" glyph-name="hyphen" horiz-adv-x="631" unicode="-"/>
<glyph d="M214 0h-116v110h116v-110z" glyph-name="period" horiz-adv-x="311" unicode="."/>
<glyph d="M46 -117l465 877h81l-466 -877h-80z" glyph-name="slash" horiz-adv-x="637" unicode="/"/>
<glyph d="M236.5 23.5q-84.5 47.5 -130 132.5t-45.5 195q0 108 45.5 191.5t130 130t196.5 46.5t196 -46.5t129.5 -130t45.5 -191.5q0 -110 -45.5 -195t-129.5 -132.5t-196 -47.5t-196.5 47.5zM589.5 79.5q66.5 38.5 101.5 108.5t35 163q0 91 -35 159.5t-101.5 106t-156.5 37.5 t-156.5 -37t-102 -105.5t-35.5 -160.5q0 -93 35.5 -163t102 -108.5t156.5 -38.5t156.5 38.5z" glyph-name="zero" horiz-adv-x="865" unicode="0"/>
<glyph d="M255 563q-24 -33 -75.5 -55.5t-122.5 -22.5h-30v70h19q81 0 138 38t79 102h66v-695h-74v563z" glyph-name="one" horiz-adv-x="470" unicode="1"/>
<glyph d="M43 72q176 65 287.5 115t182.5 100q67 46 94.5 90.5t27.5 101.5q0 46 -25.5 84.5t-80.5 62t-139 23.5q-113 0 -180.5 -48.5t-67.5 -134.5q0 -28 5 -44l-82 9q-5 22 -5 47q0 66 41 120t116 85.5t174 31.5q110 0 183.5 -33t108 -86.5t34.5 -116.5q0 -79 -46.5 -137.5 t-120.5 -104.5q-171 -106 -367 -166h558v-71h-698v72z" glyph-name="two" horiz-adv-x="798" unicode="2"/>
<glyph d="M164.5 41.5q-91.5 61.5 -107.5 164.5l76 10q18 -80 86.5 -125t194.5 -45q128 0 196.5 39t68.5 108q0 75 -63 105t-178 30h-90v65h85q102 0 161.5 31.5t59.5 98.5q0 60 -62.5 93t-186.5 33q-123 0 -189 -47.5t-75 -123.5l-73 15q6 63 45.5 113t114 79.5t181.5 29.5 q161 0 242 -52.5t81 -139.5q0 -71 -52 -110.5t-129 -46.5q93 -7 150 -49t57 -123q0 -59 -36 -107.5t-113.5 -77.5t-196.5 -29q-156 0 -247.5 61.5z" glyph-name="three" horiz-adv-x="824" unicode="3"/>
<glyph d="M608 185v-185h-74v185h-517v53l495 457h96v-449h163v-61h-163zM537 636h-3q-8 -14 -20.5 -27.5t-44.5 -43.5l-273 -254q-43 -41 -78 -65h416v293q0 67 3 97z" glyph-name="four" horiz-adv-x="784" unicode="4"/>
<glyph d="M173.5 34q-90.5 54 -116.5 151l80 15q20 -73 89 -113.5t176 -40.5q122 0 190.5 50t68.5 141q0 89 -64 136.5t-178 47.5q-100 0 -163 -33.5t-99 -102.5l-77 6l47 404h573v-68h-512l-33 -260q34 56 109.5 87.5t178.5 31.5q141 0 218.5 -64t77.5 -185q0 -79 -41.5 -137 t-117.5 -89t-178 -31q-138 0 -228.5 54z" glyph-name="five" horiz-adv-x="790" unicode="5"/>
<glyph d="M683 410.5q84 -63.5 84 -178.5q0 -74 -42 -131t-117 -89t-171 -32q-179 0 -277.5 97t-98.5 276q0 172 95.5 267t268.5 95q135 0 224 -52t108 -142l-79 -19q-47 147 -253 147q-141 0 -215 -76t-74 -220v-2q0 -23 1 -34q32 74 114 115.5t196 41.5q152 0 236 -63.5z M570 68.5q57 22.5 88 65t31 98.5q0 87 -63.5 131.5t-186.5 44.5q-115 0 -190 -48.5t-95 -135.5q28 -88 99.5 -133t183.5 -45q76 0 133 22.5z" glyph-name="six" horiz-adv-x="827" unicode="6"/>
<glyph d="M222 16q0 171 95 327.5t264 283.5h-561v68h666v-61q-173 -118 -271.5 -271t-99.5 -342v-21h-93v16z" glyph-name="seven" horiz-adv-x="703" unicode="7"/>
<glyph d="M720.5 305.5q48.5 -43.5 48.5 -114.5q0 -99 -93 -155t-258 -56q-174 0 -268 52.5t-94 150.5q0 70 52 116.5t150 64.5q-93 22 -135.5 63t-42.5 108q0 55 40.5 95.5t116 62.5t178.5 22q99 0 173.5 -22t115 -63t40.5 -96q0 -64 -45.5 -105t-131.5 -56q105 -24 153.5 -67.5z M203 453.5q45 -30.5 144 -45.5l120 -18q110 27 154.5 59.5t44.5 84.5q0 59 -66 91t-186 32q-122 0 -189 -31.5t-67 -89.5q0 -52 45 -82.5zM619 84q72 38 72 106q0 58 -52 91t-170 50l-105 14q-119 -21 -173.5 -59t-54.5 -100q0 -67 73.5 -103.5t208.5 -36.5q129 0 201 38z " glyph-name="eight" horiz-adv-x="825" unicode="8"/>
<glyph d="M669.5 623q96.5 -92 96.5 -260q0 -181 -94 -282t-269 -101q-134 0 -223.5 55t-108.5 151l78 18q22 -85 85 -121.5t169 -36.5q141 0 214.5 82t73.5 235v2q0 23 -1 34q-33 -63 -115 -104.5t-198 -41.5q-149 0 -233 58.5t-84 171.5q0 70 42 122.5t118.5 81t177.5 28.5 q175 0 271.5 -92zM579 364q75 44 95 119q-27 81 -95.5 123.5t-179.5 42.5q-123 0 -192 -43t-69 -123q0 -82 65 -122.5t186 -40.5q115 0 190 44z" glyph-name="nine" horiz-adv-x="827" unicode="9"/>
<glyph d="M214 390h-116v110h116v-110zM214 0h-116v110h116v-110z" glyph-name="colon" horiz-adv-x="311" unicode=":"/>
<glyph d="M219 390h-116v110h116v-110zM101 -92q35 12 49 34.5t14 55.5v2h-63v119h117v-102q0 -63 -22.5 -98.5t-74.5 -52.5z" glyph-name="semicolon" horiz-adv-x="316" unicode=";"/>
<glyph d="M104 295v62l556 210v-71l-472 -169l472 -170v-72z" glyph-name="less" horiz-adv-x="803" unicode="&lt;"/>
<glyph d="M62 457h561v-70h-561v70zM62 271h561v-70h-561v70z" glyph-name="equal" horiz-adv-x="685" unicode="="/>
<glyph d="M143 157l472 170l-472 169v71l557 -210v-62l-557 -210v72z" glyph-name="greater" horiz-adv-x="803" unicode="&gt;"/>
<glyph d="M304 211q0 51 28 85t81 55l87 35q52 23 79 52.5t27 84.5q0 38 -27.5 71.5t-80 53.5t-124.5 20q-120 0 -190 -45.5t-70 -127.5q0 -32 8 -55l-83 10q-8 21 -8 50q0 70 40.5 123t118 82t185.5 29q101 0 172 -27.5t106.5 -75t35.5 -105.5q0 -80 -39 -122t-110 -71l-82 -34 q-39 -16 -55.5 -38t-16.5 -58v-34h-82v42zM292 107h108v-107h-108v107z" glyph-name="question" horiz-adv-x="728" unicode="?"/>
<glyph d="M248.5 -65q-104.5 45 -159.5 132t-55 209q0 116 62 204.5t174 137.5t258 49q147 0 258.5 -46t173 -130.5t61.5 -194.5q0 -103 -47.5 -163.5t-128.5 -60.5q-55 0 -90 24.5t-46 69.5q-35 -51 -102 -78.5t-156 -27.5q-83 0 -136 34.5t-53 89.5q0 61 42.5 90t143.5 37l254 17 v6q0 63 -44 92.5t-138 29.5q-73 0 -117 -24.5t-48 -68.5h-75q2 43 34.5 77.5t88 54t122.5 19.5q119 0 181 -45t62 -133v-115q0 -47 20.5 -69.5t64.5 -22.5q49 0 76.5 43.5t27.5 121.5q0 97 -52 168.5t-148.5 110t-226.5 38.5q-131 0 -228.5 -41t-150 -116.5t-52.5 -177.5 q0 -158 106 -243t303 -85q65 0 140 12.5t121 31.5l23 -51q-49 -24 -127 -37.5t-165 -13.5q-147 0 -251.5 45zM586.5 132q52.5 18 84 49t31.5 67v31l-255 -18q-63 -5 -87.5 -21t-24.5 -51t36.5 -55t101.5 -20q61 0 113.5 18z" glyph-name="at" horiz-adv-x="1055" unicode="@"/>
<glyph d="M724 168h-521l-92 -168h-89l401 710h81l401 -710h-89zM687 237l-189 345l-34 64h-2q-14 -29 -33 -64l-189 -345h447z" glyph-name="A" horiz-adv-x="927" unicode="A"/>
<glyph d="M819 310.5q36 -45.5 36 -114.5q0 -90 -60.5 -143t-189.5 -53h-484v710h482q82 0 134 -26t75.5 -67t23.5 -90q0 -60 -33.5 -104.5t-96.5 -55.5q77 -11 113 -56.5zM204 640v-242h393q91 0 124 35.5t33 90.5q0 49 -35.5 82.5t-123.5 33.5h-391zM774 198q0 130 -172 130h-398 v-258h396q174 0 174 128z" glyph-name="B" horiz-adv-x="927" unicode="B"/>
<glyph d="M246 23q-102 47 -157 132.5t-55 199.5q0 112 57 198t160.5 133.5t239.5 47.5q166 0 273.5 -69t140.5 -197l-88 -8q-27 98 -113 151.5t-218 53.5q-112 0 -195 -37.5t-127.5 -107.5t-44.5 -164q0 -92 46 -162.5t130 -109.5t194 -39q128 0 212.5 48t119.5 141l82 -13 q-44 -120 -150.5 -182.5t-268.5 -62.5q-136 0 -238 47z" glyph-name="C" horiz-adv-x="949" unicode="C"/>
<glyph d="M121 710h398q127 0 223 -38.5t150 -115.5t54 -189q0 -113 -55 -196t-152 -127t-219 -44h-399v710zM524 70q157 0 247 77t90 220q0 137 -94.5 205t-255.5 68h-307v-570h320z" glyph-name="D" horiz-adv-x="979" unicode="D"/>
<glyph d="M796 70v-70h-674v710h667v-70h-585v-241h568v-70h-568v-259h592z" glyph-name="E" horiz-adv-x="880" unicode="E"/>
<glyph d="M204 640v-243h568v-69h-568v-328h-82v710h667v-70h-585z" glyph-name="F" horiz-adv-x="843" unicode="F"/>
<glyph d="M241.5 23.5q-99.5 47.5 -153.5 133.5t-54 198q0 113 56 199t159 133t240 47q109 0 194.5 -29.5t141 -82t76.5 -120.5l-85 -15q-25 79 -113 128.5t-220 49.5q-110 0 -193 -38.5t-128 -108.5t-45 -163q0 -91 45 -161.5t128 -109.5t193 -39q106 0 184.5 33t120 87.5 t41.5 117.5v16h-342v70h417v-369h-65l-6 139q-49 -78 -142 -120.5t-219 -42.5q-131 0 -230.5 47.5z" glyph-name="G" horiz-adv-x="987" unicode="G"/>
<glyph d="M894 0h-82v328h-608v-328h-82v710h82v-312h608v312h82v-710z" glyph-name="H" horiz-adv-x="1016" unicode="H"/>
<glyph d="M122 0v710h82v-710h-82z" glyph-name="I" horiz-adv-x="326" unicode="I"/>
<glyph d="M347 49q-68 -64 -197 -64q-43 0 -71.5 2t-56.5 8v78q35 -6 62.5 -8.5t66.5 -2.5q90 0 135.5 44t45.5 151v453h83v-456q0 -141 -68 -205z" glyph-name="J" horiz-adv-x="508" unicode="J"/>
<glyph d="M466 398l-262 -209v-189h-82v710h82v-430l542 430h118l-331 -259l361 -451h-108z" glyph-name="K" horiz-adv-x="926" unicode="K"/>
<glyph d="M122 710h82v-638h557v-72h-639v710z" glyph-name="L" horiz-adv-x="795" unicode="L"/>
<glyph d="M122 710h127l314 -583q10 -20 20 -48h3q8 21 21 48l319 583h127v-710h-75v587q0 48 1 59h-4l-27 -54l-324 -592h-80l-321 593q-11 20 -23 53h-5q2 -20 2 -59v-587h-75v710z" glyph-name="M" horiz-adv-x="1175" unicode="M"/>
<glyph d="M121 710h103l541 -559q37 -39 48 -64h2v81v542h75v-710h-89l-555 572q-30 33 -47 62h-2v-76v-558h-76v710z" glyph-name="N" horiz-adv-x="1011" unicode="N"/>
<glyph d="M255 23q-104 47 -162.5 133t-58.5 199t58.5 199t162.5 133t238 47t238.5 -47t163 -133t58.5 -199t-58.5 -199t-163 -133t-238.5 -47t-238 47zM687 83.5q85 38.5 132.5 109t47.5 162.5t-47.5 162.5t-132.5 109t-194 38.5q-108 0 -193 -38.5t-133 -109t-48 -162.5t48 -162 t133 -109t193 -39q109 0 194 38.5z" glyph-name="O" horiz-adv-x="986" unicode="O"/>
<glyph d="M762 652q68 -58 68 -158q0 -67 -34 -117.5t-96 -78t-144 -27.5h-352v-271h-83v710h456q117 0 185 -58zM696.5 382q48.5 41 48.5 112q0 69 -48 107.5t-133 38.5h-360v-299h361q83 0 131.5 41z" glyph-name="P" horiz-adv-x="860" unicode="P"/>
<glyph d="M844 -68q38 0 80 6v-75q-37 -6 -73 -6q-75 0 -139 32.5t-104 96.5q-53 -10 -115 -10q-134 0 -238 47t-162.5 133t-58.5 199t58.5 199t162.5 133t238 47t238.5 -47t163 -133t58.5 -199q0 -125 -71.5 -217t-196.5 -133q57 -73 159 -73zM167 193q48 -70 133 -109t193 -39 q109 0 194 38.5t132.5 109t47.5 162.5t-47.5 162.5t-132.5 109t-194 38.5q-108 0 -193 -38.5t-133 -109t-48 -162.5t48 -162z" glyph-name="Q" horiz-adv-x="986" unicode="Q"/>
<glyph d="M543 296h-339v-296h-83v710h461q128 0 186 -60t58 -145q0 -71 -46.5 -127t-143.5 -71l218 -307h-102zM204 366h365q89 0 130.5 40.5t41.5 99.5q0 58 -40.5 96t-131.5 38h-365v-274z" glyph-name="R" horiz-adv-x="906" unicode="R"/>
<glyph d="M180 37.5q-105 61.5 -137 189.5l90 12q50 -194 339 -194q137 0 202 34t65 106q0 62 -44.5 92.5t-150.5 40.5l-230 22q-120 10 -177 56.5t-57 131.5q0 99 89.5 152.5t255.5 53.5q169 0 264.5 -55.5t128.5 -168.5l-87 -17q-27 87 -100.5 129.5t-206.5 42.5 q-125 0 -191.5 -33.5t-66.5 -97.5q0 -40 18 -64.5t57.5 -38.5t108.5 -21l221 -22q135 -14 194.5 -59.5t59.5 -136.5q0 -107 -89 -161.5t-264 -54.5q-187 0 -292 61.5z" glyph-name="S" horiz-adv-x="885" unicode="S"/>
<glyph d="M772 640h-340v-640h-82v640h-340v70h762v-70z" glyph-name="T" horiz-adv-x="782" unicode="T"/>
<glyph d="M175 710v-388q0 -77 36.5 -140t106 -99.5t164.5 -36.5q94 0 163.5 36.5t106 99.5t36.5 140v388h82v-390q0 -100 -45.5 -178t-133 -122t-209.5 -44t-210 44t-133.5 122t-45.5 178v390h82z" glyph-name="U" horiz-adv-x="963" unicode="U"/>
<glyph d="M1 710h92l304 -571q4 -9 13 -28.5t14 -33.5h2q3 13 10.5 28.5t16.5 33.5l303 571h92l-378 -710h-91z" glyph-name="V" horiz-adv-x="849" unicode="V"/>
<glyph d="M26 710h87l206 -592l7 -21q7 -17 8 -26h2q2 13 17 47l244 592h81l244 -592q2 -5 8 -21t8 -26h2q1 6 16 47l206 592h87l-256 -710h-102l-236 577q-15 34 -16 50h-4q0 -15 -15 -50l-237 -577h-101z" glyph-name="W" horiz-adv-x="1275" unicode="W"/>
<glyph d="M387 368l-352 342h111l260 -259q25 -24 34 -36h2q6 9 17 20l16 16l258 259h111l-347 -340l372 -370h-114l-282 287q-25 26 -32 37h-2q-12 -16 -33 -37l-287 -287h-107z" glyph-name="X" horiz-adv-x="881" unicode="X"/>
<glyph d="M375 260l-374 450h104l283 -343q11 -12 18.5 -23t9.5 -20h2q5 15 28 43l287 343h104l-380 -450v-260h-82v260z" glyph-name="Y" horiz-adv-x="838" unicode="Y"/>
<glyph d="M671 640h-589v70h704v-65l-615 -575h639v-70h-753v66z" glyph-name="Z" horiz-adv-x="844" unicode="Z"/>
<glyph d="M122 763h263v-60h-193v-763h193v-60h-263v883z" glyph-name="bracketleft" horiz-adv-x="398" unicode="["/>
<glyph d="M46 760h80l466 -877h-81z" glyph-name="backslash" horiz-adv-x="637" unicode="\"/>
<glyph d="M13 -120v60h193v763h-193v60h263v-883h-263z" glyph-name="bracketright" horiz-adv-x="398" unicode="]"/>
<glyph d="M314 709l237 -280h-76l-189 223l-190 -223h-76l238 280h56z" glyph-name="asciicircum" horiz-adv-x="571" unicode="^"/>
<glyph d="M642 -95v-56h-642v56h642z" glyph-name="underscore" horiz-adv-x="642" unicode="_"/>
<glyph d="M173 580l-180 150h100l164 -150h-84z" glyph-name="grave" horiz-adv-x="600" unicode="`"/>
<glyph d="M130 20q-67 39 -67 109q0 32 12.5 59.5t35.5 46.5q29 21 74.5 34t134.5 19l322 19v11q0 68 -59 104.5t-170 36.5q-109 0 -173 -31t-77 -92h-81q8 55 50.5 96.5t114.5 64t166 22.5q149 0 226 -53t77 -155v-128q0 -68 2.5 -104.5t8.5 -78.5h-77q-7 46 -7 113 q-44 -67 -125 -99.5t-207 -32.5q-114 0 -181 39zM493 61.5q70 22.5 109.5 63t39.5 94.5v33l-306 -19q-76 -5 -118.5 -17t-59.5 -32.5t-17 -53.5q0 -45 50 -68t143 -23q89 0 159 22.5z" glyph-name="a" horiz-adv-x="810" unicode="a"/>
<glyph d="M302.5 15q-74.5 34 -112.5 93l-9 -108h-65v725h74v-341q37 63 117.5 99t182.5 36q99 0 174 -33t115.5 -94t40.5 -141q0 -78 -42.5 -139.5t-119 -96t-173.5 -34.5q-108 0 -182.5 34zM611.5 71q62.5 25 96.5 71.5t34 108.5q0 95 -71.5 149t-197.5 54q-82 0 -147 -25 t-101.5 -69t-36.5 -99v-21q0 -56 35 -100t98 -69t144 -25q84 0 146.5 25z" glyph-name="b" horiz-adv-x="865" unicode="b"/>
<glyph d="M204.5 14q-77.5 33 -120 94t-42.5 142q0 82 43 142.5t122 93.5t185 33q137 0 218.5 -46.5t109.5 -140.5l-82 -11q-22 68 -84 101t-166 33q-128 0 -198 -53t-70 -152q0 -96 72 -150.5t197 -54.5q198 0 252 128l78 -11q-26 -86 -113.5 -133.5t-219.5 -47.5 q-104 0 -181.5 33z" glyph-name="c" horiz-adv-x="766" unicode="c"/>
<glyph d="M205.5 15.5q-75.5 34.5 -118 95.5t-42.5 138q0 80 42 141t118 95t176 34q202 0 294 -130v336h74v-725h-73v113q-43 -65 -119 -98.5t-180 -33.5q-96 0 -171.5 34.5zM541 70.5q64 24.5 100 68t36 97.5v21q0 56 -37 101.5t-102.5 71t-149.5 25.5q-124 0 -194.5 -55 t-70.5 -151q0 -62 33 -108t95 -70.5t145 -24.5q81 0 145 24.5z" glyph-name="d" horiz-adv-x="865" unicode="d"/>
<glyph d="M731 230h-612q5 -87 76 -136t198 -49q195 0 266 116l65 -31q-93 -149 -331 -149q-107 0 -186 31.5t-122 91t-43 141.5q0 132 93.5 203t249.5 71q106 0 184 -30.5t120 -88.5t42 -138v-32zM654 289q0 54 -36 93.5t-97 59.5t-136 20t-134 -21t-93.5 -60.5t-38.5 -92.5h535v1 z" glyph-name="e" horiz-adv-x="785" unicode="e"/>
<glyph d="M494 439h-236v-439h-74v439h-158v61h158v43q0 98 50.5 145t155.5 47q55 0 104 -11v-66q-49 11 -103 11q-71 0 -102 -29t-31 -94v-46h236v-61z" glyph-name="f" horiz-adv-x="511" unicode="f"/>
<glyph d="M643 501.5q-26 -11.5 -37 -33.5q72 -47 72 -126q0 -55 -35 -95t-100 -62t-152 -22q-98 0 -168 28q-34 -7 -51 -22t-17 -36q0 -52 92 -52l306 -1q92 0 139 -33.5t47 -98.5q0 -82 -84 -122t-264 -40q-175 0 -256 34.5t-81 106.5q0 39 22.5 64.5t69.5 39.5q-31 12 -47.5 33 t-16.5 49q0 36 26 61t75 37q-39 23 -59 56.5t-20 74.5q0 83 77 130t210 47q105 0 175 -29q11 42 47.5 64.5t92.5 22.5q22 0 37 -3v-65q-13 4 -39 4q-35 0 -61 -11.5zM545.5 252.5q56.5 32.5 56.5 89.5q0 58 -56 89t-155 31t-155 -31t-56 -89q0 -57 56.5 -89.5t154.5 -32.5 t154.5 32.5zM247 15q-27 0 -48 3q-74 -21 -74 -80q0 -47 64 -69t201 -22q144 0 209.5 24t65.5 74q0 37 -29 53.5t-95 16.5h-294z" glyph-name="g" horiz-adv-x="787" unicode="g"/>
<glyph d="M117 725h74v-356q38 72 111.5 111t173.5 39q146 0 221.5 -76t75.5 -224v-219h-74v208q0 121 -61.5 183.5t-179.5 62.5q-79 0 -139.5 -28.5t-94 -79.5t-33.5 -117v-229h-74v725z" glyph-name="h" horiz-adv-x="860" unicode="h"/>
<glyph d="M112 500h74v-500h-74v500zM103 704h90v-113h-90v113z" glyph-name="i" horiz-adv-x="297" unicode="i"/>
<glyph d="M-51 -205v65q42 -5 85 -5q47 0 70 28.5t23 98.5v518h74v-532q0 -82 -40.5 -130.5t-131.5 -48.5q-57 0 -80 6zM115 704h90v-113h-90v113z" glyph-name="j" horiz-adv-x="313" unicode="j"/>
<glyph d="M395 287l-204 -130v-157h-74v725h74v-495l407 270h113l-253 -173l272 -327h-95z" glyph-name="k" horiz-adv-x="766" unicode="k"/>
<glyph d="M191 0h-74v725h74v-725z" glyph-name="l" horiz-adv-x="307" unicode="l"/>
<glyph d="M184 500v-126q28 71 89 108t150 37q92 0 152.5 -38t82.5 -111q32 71 97 110t153 39q253 0 253 -265v-254h-73v250q0 101 -49 152.5t-144 51.5q-66 0 -116.5 -25.5t-78 -71.5t-27.5 -106v-251h-73v250q0 101 -48.5 152.5t-143.5 51.5q-66 0 -116.5 -27t-78 -76.5 t-27.5 -113.5v-237h-74v500h72z" glyph-name="m" horiz-adv-x="1249" unicode="m"/>
<glyph d="M112 500h72v-132q38 74 112 112.5t180 38.5q143 0 217.5 -69.5t74.5 -202.5v-247h-74v227q0 227 -236 227q-82 0 -143.5 -27.5t-95 -78.5t-33.5 -119v-229h-74v500z" glyph-name="n" horiz-adv-x="855" unicode="n"/>
<glyph d="M210 14.5q-80 33.5 -124 94.5t-44 141t44 141t124 94.5t183 33.5t183 -33.5t124 -94.5t44 -141t-44 -141t-124 -94.5t-183 -33.5t-183 33.5zM537 70q62 25 95.5 71.5t33.5 108.5t-33.5 108.5t-95.5 71.5t-144 25t-144 -25t-95.5 -71.5t-33.5 -108.5t33.5 -108.5 t95.5 -71.5t144 -25t144 25z" glyph-name="o" horiz-adv-x="786" unicode="o"/>
<glyph d="M111 500h74v-117q37 63 117.5 99.5t183.5 36.5q99 0 173.5 -33t115 -94.5t40.5 -143.5q0 -78 -42.5 -138.5t-118.5 -94.5t-173 -34t-179 34.5t-117 90.5v-301h-74v695zM663 100q74 54 74 148q0 96 -71.5 151t-196.5 55q-82 0 -147 -25t-102 -70t-37 -101v-21 q0 -56 35 -99.5t98 -67.5t145 -24q128 0 202 54z" glyph-name="p" horiz-adv-x="860" unicode="p"/>
<glyph d="M675 108q-34 -54 -114 -90.5t-182 -36.5q-99 0 -175 35t-117.5 96.5t-41.5 138.5q0 81 41 142t115.5 93.5t172.5 32.5q106 0 186 -37t116 -98l11 116h62v-695h-74v303zM550 72.5q63 26.5 95 71t32 96.5v21q0 51 -34 95.5t-99 71t-153 26.5q-117 0 -192.5 -52t-75.5 -151 q0 -97 75.5 -151t200.5 -54q88 0 151 26.5z" glyph-name="q" horiz-adv-x="860" unicode="q"/>
<glyph d="M262.5 468.5q59.5 46.5 142.5 46.5q42 0 67 -6v-72q-29 5 -66 5q-57 0 -94 -15.5t-66 -46.5q-60 -64 -60 -194v-186h-74v500h69v-157q22 79 81.5 125.5z" glyph-name="r" horiz-adv-x="492" unicode="r"/>
<glyph d="M183 19q-84 38 -125 112l68 33q60 -122 286 -122q199 0 199 99q0 34 -24.5 51t-87.5 21l-246 20q-88 7 -131.5 39.5t-43.5 94.5q0 71 73 111.5t202 40.5q130 0 212 -34.5t114 -98.5l-71 -29q-33 54 -93.5 78t-168.5 24q-194 0 -194 -89q0 -65 111 -74l248 -19 q93 -8 133.5 -40t40.5 -92q0 -77 -69 -120.5t-215 -43.5q-134 0 -218 38z" glyph-name="s" horiz-adv-x="745" unicode="s"/>
<glyph d="M20 500h159v132l73 32v-164h252v-61h-252v-258q0 -67 35 -96t103 -29q60 0 116 14v-66q-20 -8 -55 -13t-67 -5q-117 0 -161 51.5t-44 137.5v264h-159v61z" glyph-name="t" horiz-adv-x="550" unicode="t"/>
<glyph d="M159 47q-71 66 -71 201v252h73v-249q0 -115 63.5 -161t157.5 -46q93 0 155.5 34.5t91.5 87.5t29 109v225h74v-500h-73v143q-33 -79 -108 -120.5t-180 -41.5q-141 0 -212 66z" glyph-name="u" horiz-adv-x="844" unicode="u"/>
<glyph d="M3 500h86l249 -405q10 -15 19 -34h1q8 18 18 34l250 405h85l-312 -500h-83z" glyph-name="v" horiz-adv-x="715" unicode="v"/>
<glyph d="M18 500h80l181 -395q12 -32 15 -43h2q6 18 18 43l200 395h83l201 -395q2 -5 8.5 -19t8.5 -24h2q10 30 16 43l180 395h80l-231 -500h-91l-199 395q-10 19 -15 43h-3q-5 -24 -15 -43l-199 -395h-91z" glyph-name="w" horiz-adv-x="1111" unicode="w"/>
<glyph d="M303 256l-274 244h100l184 -167q25 -23 39 -42h1q18 23 39 41l187 168h101l-276 -244l290 -256h-104l-194 170q-26 21 -44 44h-1q-14 -17 -46 -45l-192 -169h-99z" glyph-name="x" horiz-adv-x="709" unicode="x"/>
<glyph d="M44 -210v65q27 -3 51 -3q81 0 134 34.5t81 93.5l9 18l-316 502h89l242 -396q3 -5 23 -45h1q10 24 22 44l232 397h83l-314 -532q-54 -97 -119.5 -139.5t-161.5 -42.5q-29 0 -56 4z" glyph-name="y" horiz-adv-x="699" unicode="y"/>
<glyph d="M563 437h-480v63h589v-62l-506 -375h523v-63h-628v63z" glyph-name="z" horiz-adv-x="737" unicode="z"/>
<glyph d="M164.5 -90.5q-49.5 30.5 -49.5 109.5v190q0 32 -6 50t-28 29.5t-67 12.5v56q45 1 66.5 11t27.5 27.5t6 49.5v165q0 86 49 120.5t143 34.5h48v-61h-39q-46 0 -73.5 -8t-42.5 -31t-15 -68v-149q0 -47 -17 -77t-64 -41q46 -14 63.5 -46t17.5 -78v-168q0 -43 16 -64 t43.5 -27.5t73.5 -6.5h38v-61h-47q-94 0 -143.5 30.5z" glyph-name="braceleft" horiz-adv-x="368" unicode="{"/>
<glyph d="M117 760h63v-877h-63v877z" glyph-name="bar" horiz-adv-x="296" unicode="|"/>
<glyph d="M13 -121v61h38q47 0 74.5 6.5t43.5 27.5t16 64v168q0 46 17 78t63 46q-46 11 -63.5 41t-17.5 77v149q0 45 -15 68t-42.5 31t-73.5 8h-39v61h48q94 0 143 -34.5t49 -120.5v-165q0 -32 6 -49.5t27.5 -27.5t66.5 -11v-56q-45 -1 -67 -12.5t-28 -29.5t-6 -50v-190 q0 -79 -49.5 -109.5t-143.5 -30.5h-47z" glyph-name="braceright" horiz-adv-x="368" unicode="}"/>
<glyph d="M447 246.5q-28 12.5 -63 36.5q-28 19 -47.5 28.5t-43.5 9.5q-40 0 -63.5 -19t-32.5 -60l-58 4q9 63 51 95.5t101 32.5q39 0 68 -13t64 -37q29 -20 49 -29t43 -9q37 0 60 20.5t35 66.5l54 -9q-13 -66 -54.5 -98t-96.5 -32q-38 0 -66 12.5z" glyph-name="asciitilde" horiz-adv-x="803" unicode="~"/>
<glyph glyph-name="uni00A0" horiz-adv-x="431" unicode=" "/>
<glyph d="M122 473v107h115v-107h-115zM208 380l21 -525h-99l21 525h57z" glyph-name="exclamdown" horiz-adv-x="359" unicode="¡"/>
<glyph d="M579.5 78.5q56.5 31.5 81.5 94.5l74 -12q-25 -79 -103.5 -125.5t-197.5 -53.5v-80h-53v79q-103 2 -179.5 36t-118 94t-41.5 139t41.5 139t118 93.5t179.5 36.5v72h53v-73q252 -10 303 -186l-79 -11q-39 126 -224 137v-416q89 5 145.5 36.5zM189 100q69 -55 192 -59v418 q-125 -4 -193 -58t-68 -150t69 -151z" glyph-name="cent" horiz-adv-x="783" unicode="¢"/>
<glyph d="M807 150q-13 -80 -72 -125t-152 -45q-46 0 -144 10q-61 7 -102.5 10t-92.5 3q-100 0 -204 -20l-17 55q81 23 123.5 70t42.5 116q0 51 -17 110h-127v56h111q-14 49 -14 99q0 107 80.5 166.5t226.5 59.5q122 0 199.5 -43.5t101.5 -126.5l-76 -21q-19 61 -77 93t-149 32 q-224 0 -224 -158q0 -50 14 -101h312v-56h-296q14 -49 14 -95q0 -67 -30.5 -111.5t-94.5 -71.5q66 12 142 12q57 0 102.5 -4t53.5 -5q77 -9 141 -9q66 0 106 29t48 84z" glyph-name="sterling" horiz-adv-x="831" unicode="£"/>
<glyph d="M603 155l65 -55l-39 -36l-68 57q-80 -52 -202 -52q-126 0 -206 54l-71 -60l-39 36l68 59q-56 59 -56 145t56 145l-69 60l39 36l73 -60q79 53 205 53q120 0 200 -50l70 58l39 -36l-66 -57q59 -61 59 -149q0 -87 -58 -148zM186 177.5q63 -46.5 173 -46.5q109 0 171.5 46.5 t62.5 125.5t-62.5 125.5t-171.5 46.5q-110 0 -173 -46.5t-63 -125.5t63 -125.5z" glyph-name="currency" horiz-adv-x="710" unicode="¤"/>
<glyph d="M480 292h286v-53h-296v-74h296v-53h-296v-112h-76v112h-295v53h295v74h-295v53h285l-383 403h96l234 -246q63 -67 100 -117h3q37 50 100 117l234 246h96z" glyph-name="yen" horiz-adv-x="865" unicode="¥"/>
<glyph d="M179 382h-62v378h62v-378zM179 -117h-62v378h62v-378z" glyph-name="brokenbar" horiz-adv-x="296" unicode="¦"/>
<glyph d="M646 54q0 -88 -76.5 -134.5t-223.5 -46.5q-129 0 -204 38.5t-99 120.5l71 12q17 -56 75 -83t164 -27q219 0 219 111q0 43 -25 65.5t-82 32.5l-217 35q-75 12 -118 29t-62.5 45t-19.5 73q0 76 78 116q-30 17 -43.5 43t-13.5 66q0 79 73.5 122t207.5 43q121 0 194.5 -36.5 t95.5 -106.5l-73 -17q-22 52 -75 76t-148 24q-202 0 -202 -102q0 -38 26 -57.5t93 -29.5l222 -33q94 -15 138.5 -53t44.5 -101q0 -77 -66 -121q46 -38 46 -104zM477 205q38 -6 64 -16q51 29 51 81q0 44 -28 67.5t-94 34.5l-225 34q-18 2 -43 8q-81 -24 -81 -86q0 -37 31 -57 t111 -33z" glyph-name="section" horiz-adv-x="727" unicode="§"/>
<glyph d="M52 707h98v-110h-98v110zM368 707h99v-110h-99v110z" glyph-name="dieresis" horiz-adv-x="600" unicode="¨"/>
<glyph d="M243 21q-100 45 -154.5 130.5t-54.5 203.5t54.5 203.5t154.5 130.5t234 45t234 -45t155 -130.5t55 -203.5t-55 -203.5t-155 -130.5t-234 -45t-234 45zM684.5 58.5q89.5 40.5 139 116.5t49.5 180t-49.5 180t-139 116.5t-207.5 40.5q-117 0 -206.5 -40.5t-139 -116.5 t-49.5 -180t49.5 -180t139 -116.5t206.5 -40.5q118 0 207.5 40.5zM353 168q-58 26 -89.5 74t-31.5 112q0 65 31 113.5t89 74.5t136 26q63 0 114 -17t81.5 -47.5t34.5 -68.5l-63 -8q-8 40 -53.5 65t-114.5 25q-87 0 -138.5 -44.5t-51.5 -118.5q0 -73 52 -117t139 -44 q64 0 110.5 24.5t58.5 61.5l64 -5q-9 -38 -42 -68t-82.5 -47t-108.5 -17q-77 0 -135 26z" glyph-name="copyright" horiz-adv-x="956" unicode="©"/>
<glyph d="M108.5 324.5q-49.5 28.5 -49.5 80.5q0 60 49 84.5t137 29.5l222 14v7q0 104 -152 104q-72 0 -114.5 -21.5t-51.5 -65.5h-76q10 62 75.5 97.5t166.5 35.5q114 0 169 -40t55 -119v-95q0 -81 7 -126h-72q-4 42 -4 81q-25 -44 -84 -69.5t-142 -25.5q-86 0 -135.5 28.5z M370.5 357q46.5 16 72.5 44.5t26 63.5v32l-202 -13q-76 -5 -105.5 -22.5t-29.5 -51.5t36 -51.5t99 -17.5q57 0 103.5 16z" glyph-name="ordfeminine" horiz-adv-x="622" unicode="ª"/>
<glyph d="M36 275l245 207h91l-240 -206l237 -209h-92zM267 275l245 207h91l-240 -206l237 -209h-92z" glyph-name="guillemotleft" horiz-adv-x="626" unicode="«"/>
<glyph d="M678 369v-238h-70v168h-487v70h557z" glyph-name="logicalnot" horiz-adv-x="803" unicode="¬"/>
<glyph d="M711 689q100 -45 155 -130.5t55 -203.5t-55 -203.5t-155 -130.5t-234 -45t-234 45t-154.5 130.5t-54.5 203.5t54.5 203.5t154.5 130.5t234 45t234 -45zM684.5 58.5q89.5 40.5 139 116.5t49.5 180t-49.5 180t-139 116.5t-207.5 40.5q-117 0 -206.5 -40.5t-139 -116.5 t-49.5 -180t49.5 -180t139 -116.5t206.5 -40.5q118 0 207.5 40.5zM684 367q-28 -31 -80 -42l123 -169h-73l-115 166h-184v-166h-62v406h263q77 0 116.5 -31t39.5 -88q0 -45 -28 -76zM355 370h193q53 0 77 17.5t24 55.5q0 35 -23.5 52.5t-74.5 17.5h-196v-143z" glyph-name="registered" horiz-adv-x="956" unicode="®"/>
<glyph d="M50 669h455v-54h-455v54z" glyph-name="macron" horiz-adv-x="600" unicode="¯"/>
<glyph d="M140.5 330q-47.5 26 -74.5 72.5t-27 107.5t27 108t74 73t106 26t106.5 -26t74.5 -73t27 -108t-27 -107.5t-74.5 -72.5t-106.5 -26q-58 0 -105.5 26zM346 405.5q39 40.5 39 104.5q0 65 -39 105.5t-100 40.5t-100 -41t-39 -105t39 -104.5t100 -40.5t100 40.5z" glyph-name="degree" horiz-adv-x="492" unicode="°"/>
<glyph d="M683 360v-63h-245v-165h-74v165h-243v63h243v166h74v-166h245zM121 69h562v-69h-562v69z" glyph-name="plusminus" horiz-adv-x="803" unicode="±"/>
<glyph d="M213 730h100l-179 -150h-85z" glyph-name="acute" horiz-adv-x="600" unicode="´"/>
<glyph d="M756 500v-500h-73v143q-33 -79 -107.5 -120.5t-180.5 -41.5q-147 0 -218 72v-248h-65v695h74v-249q0 -115 63 -161t157 -46t156 34.5t91.5 87.5t29.5 109v225h73z" glyph-name="uni00B5" horiz-adv-x="868" unicode="µ"/>
<glyph d="M156 403.5q-81 42.5 -81 135.5q0 90 83 135.5t242 45.5h440v-53h-144v-767h-65v767h-172v-767h-64v461q-158 0 -239 42.5z" glyph-name="paragraph" horiz-adv-x="934" unicode="¶"/>
<glyph d="M214 288h-116v110h116v-110z" glyph-name="periodcentered" horiz-adv-x="311" unicode="·"/>
<glyph d="M182 6l-46 -59q23 15 62 15q48 0 75.5 -20t27.5 -55q0 -37 -35.5 -60.5t-91.5 -23.5q-46 0 -78.5 16t-45.5 45l54 9q8 -14 26.5 -22t44.5 -8q31 0 48.5 11.5t17.5 31.5t-16 30.5t-46 10.5q-36 0 -65 -16l-39 11l55 84h52z" glyph-name="cedilla" horiz-adv-x="600" unicode="¸"/>
<glyph d="M165.5 320q-59.5 24 -92 69t-32.5 104t32.5 103.5t92 69t137.5 24.5t137 -24.5t91.5 -69t32.5 -103.5t-32 -104t-91.5 -69t-137.5 -24t-137.5 24zM439.5 385.5q51.5 39.5 51.5 107.5q0 67 -51.5 106.5t-136.5 39.5t-136.5 -39.5t-51.5 -106.5q0 -68 51.5 -107.5 t136.5 -39.5t136.5 39.5z" glyph-name="ordmasculine" horiz-adv-x="605" unicode="º"/>
<glyph d="M25 67l237 209l-240 206h91l245 -207l-241 -208h-92zM256 67l238 209l-240 206h90l246 -207l-241 -208h-93z" glyph-name="guillemotright" horiz-adv-x="626" unicode="»"/>
<glyph d="M160 626q-18 -25 -48.5 -37t-63.5 -12h-21v57h12q48 0 84.5 20.5t48.5 56.5h58v-387h-70v302zM686 727h79l-590 -744h-80zM870 94v-94h-69v94h-310v44l307 249h72v-248h113v-45h-113zM556 139h245v198z" glyph-name="onequarter" horiz-adv-x="1002" unicode="¼"/>
<glyph d="M160 626q-18 -25 -48.5 -37t-63.5 -12h-21v57h12q48 0 84.5 20.5t48.5 56.5h58v-387h-70v302zM686 727h79l-590 -744h-80zM580 43l28 12q114 51 172 81t95 64t37 74q0 35 -33.5 56.5t-93.5 21.5q-55 0 -93 -19t-38 -64q0 -9 1 -16l-70 4q-1 7 -1 19q0 63 57 94t143 31 q90 0 145 -29.5t55 -90.5q0 -69 -80.5 -122.5t-216.5 -109.5h309v-49h-416v43z" glyph-name="onehalf" horiz-adv-x="1044" unicode="½"/>
<glyph d="M101 347q-57 36 -59 97l70 3q1 -41 39.5 -65t103.5 -24q64 0 104.5 18.5t40.5 57.5q0 31 -31.5 47.5t-109.5 16.5h-46v48h45q131 0 131 61q0 35 -37.5 52.5t-97.5 17.5q-67 0 -103 -23t-37 -67l-70 3q2 62 58 98.5t153 36.5q92 0 148.5 -28.5t56.5 -83.5 q0 -43 -33.5 -63.5t-85.5 -24.5q63 -4 97 -27.5t34 -63.5q0 -59 -60 -91t-157 -32t-154 36zM882 727h79l-590 -744h-80zM1065 94v-94h-69v94h-310v44l307 249h72v-248h113v-45h-113zM751 139h245v198z" glyph-name="threequarters" horiz-adv-x="1198" unicode="¾"/>
<glyph d="M434 473h-108v107h108v-107zM422 369q0 -51 -28 -85t-81 -55l-86 -35q-53 -23 -80 -52t-27 -85q0 -38 27.5 -71.5t80 -53.5t124.5 -20q120 0 190 45.5t70 127.5q0 32 -8 55l83 -10q8 -21 8 -50q0 -70 -40.5 -123t-118 -82t-185.5 -29q-101 0 -171.5 27.5t-106 75 t-35.5 105.5q0 80 39 122t109 71l82 34q39 16 55.5 38t16.5 58v34h82v-42z" glyph-name="questiondown" horiz-adv-x="726" unicode="¿"/>
<glyph d="M410 760l-168 105h100l156 -105h-88zM724 168h-521l-92 -168h-89l401 710h81l401 -710h-89zM687 237l-189 345l-34 64h-2q-14 -29 -33 -64l-189 -345h447z" glyph-name="Agrave" horiz-adv-x="927" unicode="À"/>
<glyph d="M507 760h-88l156 105h100zM724 168h-521l-92 -168h-89l401 710h81l401 -710h-89zM687 237l-189 345l-34 64h-2q-14 -29 -33 -64l-189 -345h447z" glyph-name="Aacute" horiz-adv-x="927" unicode="Á"/>
<glyph d="M356 760h-91l153 105h90l153 -105h-91l-107 72zM724 168h-521l-92 -168h-89l401 710h81l401 -710h-89zM687 237l-189 345l-34 64h-2q-14 -29 -33 -64l-189 -345h447z" glyph-name="Acircumflex" horiz-adv-x="927" unicode="Â"/>
<glyph d="M321.5 803q-18.5 -14 -23.5 -40l-56 8q8 48 42 74.5t87 26.5q32 0 55 -8.5t52 -25.5q22 -14 39.5 -21t39.5 -7q29 0 48 14.5t23 40.5l56 -9q-9 -48 -42.5 -74.5t-86.5 -26.5q-32 0 -54.5 8.5t-52.5 25.5q-24 14 -41 21t-38 7q-29 0 -47.5 -14zM724 168h-521l-92 -168h-89 l401 710h81l401 -710h-89zM687 237l-189 345l-34 64h-2q-14 -29 -33 -64l-189 -345h447z" glyph-name="Atilde" horiz-adv-x="927" unicode="Ã"/>
<glyph d="M356 760h-98v104h98v-104zM670 760h-99v104h99v-104zM724 168h-521l-92 -168h-89l401 710h81l401 -710h-89zM687 237l-189 345l-34 64h-2q-14 -29 -33 -64l-189 -345h447z" glyph-name="Adieresis" horiz-adv-x="927" unicode="Ä"/>
<glyph d="M385 766q-30 28 -30 72t30 72t77 28q48 0 78 -28t30 -72t-30 -72t-78 -28q-47 0 -77 28zM421.5 880q-15.5 -16 -15.5 -42q0 -25 15.5 -41t40.5 -16q26 0 41.5 16t15.5 41q0 26 -15.5 42t-41.5 16q-25 0 -40.5 -16zM724 168h-521l-92 -168h-89l401 710h81l401 -710h-89z M687 237l-189 345l-34 64h-2q-14 -29 -33 -64l-189 -345h447z" glyph-name="Aring" horiz-adv-x="927" unicode="Å"/>
<glyph d="M1438 70v-70h-721v161h-463l-159 -161h-100l711 710h725v-70h-631v-241h614v-70h-614v-259h638zM717 230v402l-396 -402h396z" glyph-name="AE" horiz-adv-x="1523" unicode="Æ"/>
<glyph d="M701.5 93q84.5 48 119.5 141l82 -13q-41 -114 -139.5 -176t-247.5 -68l-25 -33q23 15 62 15q48 0 75.5 -20t27.5 -55q0 -37 -35.5 -60.5t-91.5 -23.5q-46 0 -78.5 16t-45.5 45l54 9q8 -14 26.5 -22t44.5 -8q31 0 48.5 11.5t17.5 31.5t-16 30.5t-46 10.5q-36 0 -65 -16 l-39 11l37 57q-132 3 -229.5 50.5t-150.5 132.5t-53 196q0 112 57 198t160.5 133.5t239.5 47.5q166 0 273.5 -69t140.5 -197l-88 -8q-27 98 -113 151.5t-218 53.5q-112 0 -195 -37.5t-127.5 -107.5t-44.5 -164q0 -92 46 -162.5t130 -109.5t194 -39q128 0 212.5 48z" glyph-name="Ccedilla" horiz-adv-x="949" unicode="Ç"/>
<glyph d="M420 760l-168 105h100l156 -105h-88zM796 70v-70h-674v710h667v-70h-585v-241h568v-70h-568v-259h592z" glyph-name="Egrave" horiz-adv-x="880" unicode="È"/>
<glyph d="M518 760h-88l156 105h100zM796 70v-70h-674v710h667v-70h-585v-241h568v-70h-568v-259h592z" glyph-name="Eacute" horiz-adv-x="880" unicode="É"/>
<glyph d="M367 760h-91l153 105h90l153 -105h-91l-107 72zM796 70v-70h-674v710h667v-70h-585v-241h568v-70h-568v-259h592z" glyph-name="Ecircumflex" horiz-adv-x="880" unicode="Ê"/>
<glyph d="M366 760h-98v104h98v-104zM680 760h-99v104h99v-104zM796 70v-70h-674v710h667v-70h-585v-241h568v-70h-568v-259h592z" glyph-name="Edieresis" horiz-adv-x="880" unicode="Ë"/>
<glyph d="M120 760l-102 105h90l95 -105h-83zM122 0v710h82v-710h-82z" glyph-name="Igrave" horiz-adv-x="326" unicode="Ì"/>
<glyph d="M217 865h90l-102 -105h-83zM122 0v710h82v-710h-82z" glyph-name="Iacute" horiz-adv-x="326" unicode="Í"/>
<glyph d="M220 761l-57 71l-57 -71h-80l92 104h90l92 -104h-80zM122 0v710h82v-710h-82z" glyph-name="Icircumflex" horiz-adv-x="326" unicode="Î"/>
<glyph d="M33 864h98v-104h-98v104zM195 864h98v-104h-98v104zM122 0v710h82v-710h-82z" glyph-name="Idieresis" horiz-adv-x="326" unicode="Ï"/>
<glyph d="M742 671.5q96 -38.5 150 -115.5t54 -189q0 -113 -55 -196t-152 -127t-219 -44h-399v337h-101v63h101v310h398q127 0 223 -38.5zM771 147q90 77 90 220q0 137 -94.5 205t-255.5 68h-307v-240h326v-63h-326v-267h320q157 0 247 77z" glyph-name="Eth" horiz-adv-x="980" unicode="Ð"/>
<glyph d="M543.5 763.5q-22.5 8.5 -52.5 25.5q-24 14 -41 21t-38 7q-29 0 -47.5 -14t-23.5 -40l-56 8q8 48 42 74.5t87 26.5q32 0 55 -8.5t52 -25.5q22 -14 39.5 -21t39.5 -7q29 0 48 14.5t23 40.5l56 -9q-9 -48 -42.5 -74.5t-86.5 -26.5q-32 0 -54.5 8.5zM121 710h103l541 -559 q37 -39 48 -64h2v81v542h75v-710h-89l-555 572q-30 33 -47 62h-2v-76v-558h-76v710z" glyph-name="Ntilde" horiz-adv-x="1011" unicode="Ñ"/>
<glyph d="M439 760l-168 105h100l156 -105h-88zM255 23q-104 47 -162.5 133t-58.5 199t58.5 199t162.5 133t238 47t238.5 -47t163 -133t58.5 -199t-58.5 -199t-163 -133t-238.5 -47t-238 47zM687 83.5q85 38.5 132.5 109t47.5 162.5t-47.5 162.5t-132.5 109t-194 38.5 q-108 0 -193 -38.5t-133 -109t-48 -162.5t48 -162t133 -109t193 -39q109 0 194 38.5z" glyph-name="Ograve" horiz-adv-x="986" unicode="Ò"/>
<glyph d="M605 865h100l-168 -105h-88zM255 23q-104 47 -162.5 133t-58.5 199t58.5 199t162.5 133t238 47t238.5 -47t163 -133t58.5 -199t-58.5 -199t-163 -133t-238.5 -47t-238 47zM687 83.5q85 38.5 132.5 109t47.5 162.5t-47.5 162.5t-132.5 109t-194 38.5q-108 0 -193 -38.5 t-133 -109t-48 -162.5t48 -162t133 -109t193 -39q109 0 194 38.5z" glyph-name="Oacute" horiz-adv-x="986" unicode="Ó"/>
<glyph d="M600 760l-107 72l-107 -72h-91l153 105h90l153 -105h-91zM255 23q-104 47 -162.5 133t-58.5 199t58.5 199t162.5 133t238 47t238.5 -47t163 -133t58.5 -199t-58.5 -199t-163 -133t-238.5 -47t-238 47zM687 83.5q85 38.5 132.5 109t47.5 162.5t-47.5 162.5t-132.5 109 t-194 38.5q-108 0 -193 -38.5t-133 -109t-48 -162.5t48 -162t133 -109t193 -39q109 0 194 38.5z" glyph-name="Ocircumflex" horiz-adv-x="986" unicode="Ô"/>
<glyph d="M530.5 763.5q-22.5 8.5 -52.5 25.5q-24 14 -41 21t-38 7q-29 0 -47.5 -14t-23.5 -40l-56 8q8 48 42 74.5t87 26.5q32 0 55 -8.5t52 -25.5q22 -14 39.5 -21t39.5 -7q29 0 48 14.5t23 40.5l56 -9q-9 -48 -42.5 -74.5t-86.5 -26.5q-32 0 -54.5 8.5zM255 23 q-104 47 -162.5 133t-58.5 199t58.5 199t162.5 133t238 47t238.5 -47t163 -133t58.5 -199t-58.5 -199t-163 -133t-238.5 -47t-238 47zM687 83.5q85 38.5 132.5 109t47.5 162.5t-47.5 162.5t-132.5 109t-194 38.5q-108 0 -193 -38.5t-133 -109t-48 -162.5t48 -162t133 -109 t193 -39q109 0 194 38.5z" glyph-name="Otilde" horiz-adv-x="986" unicode="Õ"/>
<glyph d="M287 864h98v-104h-98v104zM600 864h99v-104h-99v104zM255 23q-104 47 -162.5 133t-58.5 199t58.5 199t162.5 133t238 47t238.5 -47t163 -133t58.5 -199t-58.5 -199t-163 -133t-238.5 -47t-238 47zM687 83.5q85 38.5 132.5 109t47.5 162.5t-47.5 162.5t-132.5 109 t-194 38.5q-108 0 -193 -38.5t-133 -109t-48 -162.5t48 -162t133 -109t193 -39q109 0 194 38.5z" glyph-name="Odieresis" horiz-adv-x="986" unicode="Ö"/>
<glyph d="M453 327l224 -191l-48 -47l-227 194l-227 -194l-49 47l224 191l-224 191l49 47l227 -194l226 194l49 -47z" glyph-name="multiply" horiz-adv-x="803" unicode="×"/>
<glyph d="M925 497.5q28 -65.5 28 -142.5q0 -113 -58.5 -199t-163 -133t-238.5 -47q-89 0 -166 21.5t-137 61.5l-90 -76l-43 45l84 71q-52 50 -79.5 114.5t-27.5 141.5q0 113 58.5 199t162.5 133t238 47q89 0 166 -21.5t136 -61.5l90 76l45 -44l-85 -71q52 -49 80 -114.5z M140.5 242q21.5 -52 61.5 -92l533 450q-99 65 -242 65q-108 0 -193 -38.5t-133 -109t-48 -162.5q0 -61 21.5 -113zM687 83.5q85 38.5 132.5 109t47.5 162.5q0 61 -21.5 113t-61.5 92l-533 -450q101 -65 242 -65q109 0 194 38.5z" glyph-name="Oslash" horiz-adv-x="986" unicode="Ø"/>
<glyph d="M428 760l-168 105h100l156 -105h-88zM175 710v-388q0 -77 36.5 -140t106 -99.5t164.5 -36.5q94 0 163.5 36.5t106 99.5t36.5 140v388h82v-390q0 -100 -45.5 -178t-133 -122t-209.5 -44t-210 44t-133.5 122t-45.5 178v390h82z" glyph-name="Ugrave" horiz-adv-x="963" unicode="Ù"/>
<glyph d="M594 865h100l-168 -105h-88zM175 710v-388q0 -77 36.5 -140t106 -99.5t164.5 -36.5q94 0 163.5 36.5t106 99.5t36.5 140v388h82v-390q0 -100 -45.5 -178t-133 -122t-209.5 -44t-210 44t-133.5 122t-45.5 178v390h82z" glyph-name="Uacute" horiz-adv-x="963" unicode="Ú"/>
<glyph d="M589 760l-107 72l-107 -72h-91l153 105h90l153 -105h-91zM175 710v-388q0 -77 36.5 -140t106 -99.5t164.5 -36.5q94 0 163.5 36.5t106 99.5t36.5 140v388h82v-390q0 -100 -45.5 -178t-133 -122t-209.5 -44t-210 44t-133.5 122t-45.5 178v390h82z" glyph-name="Ucircumflex" horiz-adv-x="963" unicode="Û"/>
<glyph d="M276 864h98v-104h-98v104zM589 864h99v-104h-99v104zM175 710v-388q0 -77 36.5 -140t106 -99.5t164.5 -36.5q94 0 163.5 36.5t106 99.5t36.5 140v388h82v-390q0 -100 -45.5 -178t-133 -122t-209.5 -44t-210 44t-133.5 122t-45.5 178v390h82z" glyph-name="Udieresis" horiz-adv-x="963" unicode="Ü"/>
<glyph d="M531 865h100l-168 -105h-88zM375 260l-374 450h104l283 -343q11 -12 18.5 -23t9.5 -20h2q5 15 28 43l287 343h104l-380 -450v-260h-82v260z" glyph-name="Yacute" horiz-adv-x="838" unicode="Ý"/>
<glyph d="M706.5 532.5q65.5 -58.5 65.5 -159.5q0 -102 -65.5 -160.5t-181.5 -58.5h-321v-154h-83v710h83v-119h321q116 0 181.5 -58.5zM641 263q43 39 43 110q0 70 -43.5 109t-124.5 39h-312v-297h313q81 0 124 39z" glyph-name="Thorn" horiz-adv-x="802" unicode="Þ"/>
<glyph d="M201 667.5q87 67.5 248 67.5q96 0 166.5 -23.5t109 -67t38.5 -103.5q0 -64 -43.5 -105.5t-123.5 -53.5q102 -10 157.5 -57.5t55.5 -126.5q0 -105 -86 -159t-247 -54q-74 0 -175 19v60q82 -19 167 -19q135 0 200.5 36t65.5 113q0 153 -268 154h-154v57h135q120 0 178 33 t58 101q0 67 -60.5 101.5t-174.5 34.5q-132 0 -196 -49.5t-64 -154.5v-471h-74v477q0 123 87 190.5z" glyph-name="germandbls" horiz-adv-x="869" unicode="ß"/>
<glyph d="M130 20q-67 39 -67 109q0 32 12.5 59.5t35.5 46.5q29 21 74.5 34t134.5 19l322 19v11q0 68 -59 104.5t-170 36.5q-109 0 -173 -31t-77 -92h-81q8 55 50.5 96.5t114.5 64t166 22.5q149 0 226 -53t77 -155v-128q0 -68 2.5 -104.5t8.5 -78.5h-77q-7 46 -7 113 q-44 -67 -125 -99.5t-207 -32.5q-114 0 -181 39zM493 61.5q70 22.5 109.5 63t39.5 94.5v33l-306 -19q-76 -5 -118.5 -17t-59.5 -32.5t-17 -53.5q0 -45 50 -68t143 -23q89 0 159 22.5zM369 580l-180 150h100l164 -150h-84z" glyph-name="agrave" horiz-adv-x="810" unicode="à"/>
<glyph d="M130 20q-67 39 -67 109q0 32 12.5 59.5t35.5 46.5q29 21 74.5 34t134.5 19l322 19v11q0 68 -59 104.5t-170 36.5q-109 0 -173 -31t-77 -92h-81q8 55 50.5 96.5t114.5 64t166 22.5q149 0 226 -53t77 -155v-128q0 -68 2.5 -104.5t8.5 -78.5h-77q-7 46 -7 113 q-44 -67 -125 -99.5t-207 -32.5q-114 0 -181 39zM493 61.5q70 22.5 109.5 63t39.5 94.5v33l-306 -19q-76 -5 -118.5 -17t-59.5 -32.5t-17 -53.5q0 -45 50 -68t143 -23q89 0 159 22.5zM532 730h100l-179 -150h-85z" glyph-name="aacute" horiz-adv-x="810" unicode="á"/>
<glyph d="M130 20q-67 39 -67 109q0 32 12.5 59.5t35.5 46.5q29 21 74.5 34t134.5 19l322 19v11q0 68 -59 104.5t-170 36.5q-109 0 -173 -31t-77 -92h-81q8 55 50.5 96.5t114.5 64t166 22.5q149 0 226 -53t77 -155v-128q0 -68 2.5 -104.5t8.5 -78.5h-77q-7 46 -7 113 q-44 -67 -125 -99.5t-207 -32.5q-114 0 -181 39zM493 61.5q70 22.5 109.5 63t39.5 94.5v33l-306 -19q-76 -5 -118.5 -17t-59.5 -32.5t-17 -53.5q0 -45 50 -68t143 -23q89 0 159 22.5zM542 580l-133 116l-132 -116h-80l168 150h89l168 -150h-80z" glyph-name="acircumflex" horiz-adv-x="810" unicode="â"/>
<glyph d="M130 20q-67 39 -67 109q0 32 12.5 59.5t35.5 46.5q29 21 74.5 34t134.5 19l322 19v11q0 68 -59 104.5t-170 36.5q-109 0 -173 -31t-77 -92h-81q8 55 50.5 96.5t114.5 64t166 22.5q149 0 226 -53t77 -155v-128q0 -68 2.5 -104.5t8.5 -78.5h-77q-7 46 -7 113 q-44 -67 -125 -99.5t-207 -32.5q-114 0 -181 39zM493 61.5q70 22.5 109.5 63t39.5 94.5v33l-306 -19q-76 -5 -118.5 -17t-59.5 -32.5t-17 -53.5q0 -45 50 -68t143 -23q89 0 159 22.5zM452.5 595q-24.5 10 -58.5 30q-28 17 -46 24.5t-41 7.5q-33 0 -54 -17t-27 -48l-56 9 q10 53 46 82t93 29q36 0 60.5 -10t58.5 -30q27 -17 45.5 -25t41.5 -8q32 0 53.5 17t26.5 48l56 -8q-9 -53 -45 -82t-93 -29q-36 0 -60.5 10z" glyph-name="atilde" horiz-adv-x="810" unicode="ã"/>
<glyph d="M130 20q-67 39 -67 109q0 32 12.5 59.5t35.5 46.5q29 21 74.5 34t134.5 19l322 19v11q0 68 -59 104.5t-170 36.5q-109 0 -173 -31t-77 -92h-81q8 55 50.5 96.5t114.5 64t166 22.5q149 0 226 -53t77 -155v-128q0 -68 2.5 -104.5t8.5 -78.5h-77q-7 46 -7 113 q-44 -67 -125 -99.5t-207 -32.5q-114 0 -181 39zM493 61.5q70 22.5 109.5 63t39.5 94.5v33l-306 -19q-76 -5 -118.5 -17t-59.5 -32.5t-17 -53.5q0 -45 50 -68t143 -23q89 0 159 22.5zM203 707h98v-110h-98v110zM519 707h99v-110h-99v110z" glyph-name="adieresis" horiz-adv-x="810" unicode="ä"/>
<glyph d="M130 20q-67 39 -67 109q0 32 12.5 59.5t35.5 46.5q29 21 74.5 34t134.5 19l322 19v11q0 68 -59 104.5t-170 36.5q-109 0 -173 -31t-77 -92h-81q8 55 50.5 96.5t114.5 64t166 22.5q149 0 226 -53t77 -155v-128q0 -68 2.5 -104.5t8.5 -78.5h-77q-7 46 -7 113 q-44 -67 -125 -99.5t-207 -32.5q-114 0 -181 39zM493 61.5q70 22.5 109.5 63t39.5 94.5v33l-306 -19q-76 -5 -118.5 -17t-59.5 -32.5t-17 -53.5q0 -45 50 -68t143 -23q89 0 159 22.5zM299 586q-41 27 -41 73q0 45 41 72t111 27t111 -27t41 -72q0 -46 -41 -73t-111 -27 t-111 27zM485 614.5q27 16.5 27 44.5q0 27 -27 43.5t-75 16.5t-75.5 -16.5t-27.5 -43.5q0 -28 27.5 -44.5t75.5 -16.5t75 16.5z" glyph-name="aring" horiz-adv-x="810" unicode="å"/>
<glyph d="M1272 231h-574q4 -87 70.5 -136.5t183.5 -49.5q183 0 248 118l64 -31q-85 -151 -312 -151q-111 0 -190 38.5t-115 109.5q-90 -148 -334 -148q-119 0 -184.5 38.5t-65.5 108.5q0 71 60.5 107t186.5 40l311 10v27q0 74 -52.5 109.5t-163.5 35.5t-173.5 -33t-70.5 -97h-79 q14 91 99.5 141.5t225.5 50.5q101 0 168 -28t97 -81q41 53 111.5 81t161.5 28q100 0 174 -30.5t113.5 -88t39.5 -136.5v-33zM1194 291q0 53 -33 91.5t-89.5 59t-126.5 20.5q-106 0 -174 -47t-73 -125h496v1zM621 232l-310 -11q-89 -3 -129.5 -25t-40.5 -66t46 -66.5 t135 -22.5q85 0 153 22t107 61.5t39 88.5v19z" glyph-name="ae" horiz-adv-x="1326" unicode="æ"/>
<glyph d="M641 173l78 -11q-25 -81 -105.5 -128.5t-201.5 -52.5l-27 -34q23 15 62 15q48 0 75.5 -20t27.5 -55q0 -37 -35.5 -60.5t-91.5 -23.5q-46 0 -78.5 16t-45.5 45l54 9q8 -14 26.5 -22t44.5 -8q31 0 48.5 11.5t17.5 31.5t-16 30.5t-46 10.5q-36 0 -65 -16l-39 11l39 59 q-97 4 -169.5 38t-112 93.5t-39.5 137.5q0 82 43 142.5t122 93.5t185 33q137 0 218.5 -46.5t109.5 -140.5l-82 -11q-22 68 -84 101t-166 33q-128 0 -198 -53t-70 -152q0 -96 72 -150.5t197 -54.5q198 0 252 128z" glyph-name="ccedilla" horiz-adv-x="766" unicode="ç"/>
<glyph d="M731 230h-612q5 -87 76 -136t198 -49q195 0 266 116l65 -31q-93 -149 -331 -149q-107 0 -186 31.5t-122 91t-43 141.5q0 132 93.5 203t249.5 71q106 0 184 -30.5t120 -88.5t42 -138v-32zM654 289q0 54 -36 93.5t-97 59.5t-136 20t-134 -21t-93.5 -60.5t-38.5 -92.5h535v1 zM350 580l-180 150h100l164 -150h-84z" glyph-name="egrave" horiz-adv-x="785" unicode="è"/>
<glyph d="M731 230h-612q5 -87 76 -136t198 -49q195 0 266 116l65 -31q-93 -149 -331 -149q-107 0 -186 31.5t-122 91t-43 141.5q0 132 93.5 203t249.5 71q106 0 184 -30.5t120 -88.5t42 -138v-32zM654 289q0 54 -36 93.5t-97 59.5t-136 20t-134 -21t-93.5 -60.5t-38.5 -92.5h535v1 zM513 730h100l-179 -150h-85z" glyph-name="eacute" horiz-adv-x="785" unicode="é"/>
<glyph d="M731 230h-612q5 -87 76 -136t198 -49q195 0 266 116l65 -31q-93 -149 -331 -149q-107 0 -186 31.5t-122 91t-43 141.5q0 132 93.5 203t249.5 71q106 0 184 -30.5t120 -88.5t42 -138v-32zM654 289q0 54 -36 93.5t-97 59.5t-136 20t-134 -21t-93.5 -60.5t-38.5 -92.5h535v1 zM524 580l-133 116l-132 -116h-80l168 150h89l168 -150h-80z" glyph-name="ecircumflex" horiz-adv-x="785" unicode="ê"/>
<glyph d="M731 230h-612q5 -87 76 -136t198 -49q195 0 266 116l65 -31q-93 -149 -331 -149q-107 0 -186 31.5t-122 91t-43 141.5q0 132 93.5 203t249.5 71q106 0 184 -30.5t120 -88.5t42 -138v-32zM654 289q0 54 -36 93.5t-97 59.5t-136 20t-134 -21t-93.5 -60.5t-38.5 -92.5h535v1 zM184 707h98v-110h-98v110zM500 707h99v-110h-99v110z" glyph-name="edieresis" horiz-adv-x="785" unicode="ë"/>
<glyph d="M112 580l-99 150h80l93 -150h-74zM112 500h74v-500h-74v500z" glyph-name="igrave" horiz-adv-x="297" unicode="ì"/>
<glyph d="M205 730h80l-100 -150h-73zM112 500h74v-500h-74v500z" glyph-name="iacute" horiz-adv-x="297" unicode="í"/>
<glyph d="M202 580l-53 115l-52 -115h-65l79 152h77l78 -152h-64zM112 500h74v-500h-74v500z" glyph-name="icircumflex" horiz-adv-x="297" unicode="î"/>
<glyph d="M20 709h99v-112h-99v112zM180 709h98v-112h-98v112zM112 500h74v-500h-74v500z" glyph-name="idieresis" horiz-adv-x="297" unicode="ï"/>
<glyph d="M752 264q0 -87 -43 -151t-123.5 -98t-190.5 -34q-109 0 -188 32t-120.5 91t-41.5 139q0 79 42 138.5t121 92t187 32.5q93 0 162.5 -33.5t108.5 -94.5h2q-9 57 -46.5 109.5t-98.5 94.5l-238 -42l-14 45l190 34q-77 39 -168 61l37 53q134 -40 223 -98l142 25l15 -45 l-106 -19q148 -126 148 -332zM602.5 98.5q75.5 52.5 75.5 144.5q0 62 -34.5 107.5t-98 70t-149.5 24.5q-131 0 -202 -53.5t-71 -148.5q0 -92 71.5 -144.5t200.5 -52.5q132 0 207.5 52.5z" glyph-name="eth" horiz-adv-x="835" unicode="ð"/>
<glyph d="M112 500h72v-132q38 74 112 112.5t180 38.5q143 0 217.5 -69.5t74.5 -202.5v-247h-74v227q0 227 -236 227q-82 0 -143.5 -27.5t-95 -78.5t-33.5 -119v-229h-74v500zM511.5 595q-24.5 10 -58.5 30q-28 17 -46 24.5t-41 7.5q-33 0 -54 -17t-27 -48l-56 9q10 53 46 82t93 29 q36 0 60.5 -10t58.5 -30q27 -17 45.5 -25t41.5 -8q32 0 53.5 17t26.5 48l56 -8q-9 -53 -45 -82t-93 -29q-36 0 -60.5 10z" glyph-name="ntilde" horiz-adv-x="855" unicode="ñ"/>
<glyph d="M210 14.5q-80 33.5 -124 94.5t-44 141t44 141t124 94.5t183 33.5t183 -33.5t124 -94.5t44 -141t-44 -141t-124 -94.5t-183 -33.5t-183 33.5zM537 70q62 25 95.5 71.5t33.5 108.5t-33.5 108.5t-95.5 71.5t-144 25t-144 -25t-95.5 -71.5t-33.5 -108.5t33.5 -108.5 t95.5 -71.5t144 -25t144 25zM352 580l-180 150h100l164 -150h-84z" glyph-name="ograve" horiz-adv-x="786" unicode="ò"/>
<glyph d="M210 14.5q-80 33.5 -124 94.5t-44 141t44 141t124 94.5t183 33.5t183 -33.5t124 -94.5t44 -141t-44 -141t-124 -94.5t-183 -33.5t-183 33.5zM537 70q62 25 95.5 71.5t33.5 108.5t-33.5 108.5t-95.5 71.5t-144 25t-144 -25t-95.5 -71.5t-33.5 -108.5t33.5 -108.5 t95.5 -71.5t144 -25t144 25zM515 730h100l-179 -150h-85z" glyph-name="oacute" horiz-adv-x="786" unicode="ó"/>
<glyph d="M210 14.5q-80 33.5 -124 94.5t-44 141t44 141t124 94.5t183 33.5t183 -33.5t124 -94.5t44 -141t-44 -141t-124 -94.5t-183 -33.5t-183 33.5zM537 70q62 25 95.5 71.5t33.5 108.5t-33.5 108.5t-95.5 71.5t-144 25t-144 -25t-95.5 -71.5t-33.5 -108.5t33.5 -108.5 t95.5 -71.5t144 -25t144 25zM526 580l-133 116l-132 -116h-80l168 150h89l168 -150h-80z" glyph-name="ocircumflex" horiz-adv-x="786" unicode="ô"/>
<glyph d="M210 14.5q-80 33.5 -124 94.5t-44 141t44 141t124 94.5t183 33.5t183 -33.5t124 -94.5t44 -141t-44 -141t-124 -94.5t-183 -33.5t-183 33.5zM537 70q62 25 95.5 71.5t33.5 108.5t-33.5 108.5t-95.5 71.5t-144 25t-144 -25t-95.5 -71.5t-33.5 -108.5t33.5 -108.5 t95.5 -71.5t144 -25t144 25zM435.5 595q-24.5 10 -58.5 30q-28 17 -46 24.5t-41 7.5q-33 0 -54 -17t-27 -48l-56 9q10 53 46 82t93 29q36 0 60.5 -10t58.5 -30q27 -17 45.5 -25t41.5 -8q32 0 53.5 17t26.5 48l56 -8q-9 -53 -45 -82t-93 -29q-36 0 -60.5 10z" glyph-name="otilde" horiz-adv-x="786" unicode="õ"/>
<glyph d="M210 14.5q-80 33.5 -124 94.5t-44 141t44 141t124 94.5t183 33.5t183 -33.5t124 -94.5t44 -141t-44 -141t-124 -94.5t-183 -33.5t-183 33.5zM537 70q62 25 95.5 71.5t33.5 108.5t-33.5 108.5t-95.5 71.5t-144 25t-144 -25t-95.5 -71.5t-33.5 -108.5t33.5 -108.5 t95.5 -71.5t144 -25t144 25zM186 707h98v-110h-98v110zM502 707h99v-110h-99v110z" glyph-name="odieresis" horiz-adv-x="786" unicode="ö"/>
<glyph d="M305.5 473q-13.5 14 -13.5 35t13.5 34.5t34.5 13.5t34.5 -13.5t13.5 -34.5t-13.5 -35t-34.5 -14t-34.5 14zM62 359h561v-66h-561v66zM305.5 110.5q-13.5 13.5 -13.5 34.5q0 22 13.5 35.5t34.5 13.5t34.5 -13.5t13.5 -35.5q0 -21 -13.5 -34.5t-34.5 -13.5t-34.5 13.5z" glyph-name="divide" horiz-adv-x="685" unicode="÷"/>
<glyph d="M724 348.5q20 -45.5 20 -98.5q0 -80 -44 -141t-124 -94.5t-183 -33.5q-139 0 -232 59l-80 -62l-36 36l74 58q-37 34 -57 79.5t-20 98.5q0 80 44 141t124 94.5t183 33.5q136 0 230 -58l80 62l37 -38l-73 -57q37 -34 57 -79.5zM176 116l389 300q-70 39 -172 39 q-82 0 -144 -25t-95.5 -71.5t-33.5 -108.5q0 -81 56 -134zM537 70q62 25 95.5 71.5t33.5 108.5q0 81 -57 135l-390 -301q72 -39 174 -39q82 0 144 25z" glyph-name="oslash" horiz-adv-x="786" unicode="ø"/>
<glyph d="M159 47q-71 66 -71 201v252h73v-249q0 -115 63.5 -161t157.5 -46q93 0 155.5 34.5t91.5 87.5t29 109v225h74v-500h-73v143q-33 -79 -108 -120.5t-180 -41.5q-141 0 -212 66zM367 580l-180 150h100l164 -150h-84z" glyph-name="ugrave" horiz-adv-x="844" unicode="ù"/>
<glyph d="M159 47q-71 66 -71 201v252h73v-249q0 -115 63.5 -161t157.5 -46q93 0 155.5 34.5t91.5 87.5t29 109v225h74v-500h-73v143q-33 -79 -108 -120.5t-180 -41.5q-141 0 -212 66zM530 730h100l-179 -150h-85z" glyph-name="uacute" horiz-adv-x="844" unicode="ú"/>
<glyph d="M159 47q-71 66 -71 201v252h73v-249q0 -115 63.5 -161t157.5 -46q93 0 155.5 34.5t91.5 87.5t29 109v225h74v-500h-73v143q-33 -79 -108 -120.5t-180 -41.5q-141 0 -212 66zM541 580l-133 116l-132 -116h-80l168 150h89l168 -150h-80z" glyph-name="ucircumflex" horiz-adv-x="844" unicode="û"/>
<glyph d="M159 47q-71 66 -71 201v252h73v-249q0 -115 63.5 -161t157.5 -46q93 0 155.5 34.5t91.5 87.5t29 109v225h74v-500h-73v143q-33 -79 -108 -120.5t-180 -41.5q-141 0 -212 66zM201 707h98v-110h-98v110zM517 707h99v-110h-99v110z" glyph-name="udieresis" horiz-adv-x="844" unicode="ü"/>
<glyph d="M44 -210v65q27 -3 51 -3q81 0 134 34.5t81 93.5l9 18l-316 502h89l242 -396q3 -5 23 -45h1q10 24 22 44l232 397h83l-314 -532q-54 -97 -119.5 -139.5t-161.5 -42.5q-29 0 -56 4zM471 730h100l-179 -150h-85z" glyph-name="yacute" horiz-adv-x="699" unicode="ý"/>
<glyph d="M116 725h74v-340q37 62 118 98t182 36q99 0 174 -33t115.5 -93.5t40.5 -141.5q0 -79 -42.5 -140t-118.5 -95.5t-173 -34.5q-95 0 -177.5 35t-118.5 91v-302h-74v920zM668 100.5q74 54.5 74 150.5q0 95 -72 149t-197 54q-81 0 -146 -25t-102 -69t-37 -99v-21 q0 -57 35 -101t98 -68.5t144 -24.5q129 0 203 54.5z" glyph-name="thorn" horiz-adv-x="865" unicode="þ"/>
<glyph d="M112 500h74v-500h-74v500z" glyph-name="dotlessi" horiz-adv-x="297" unicode="ı"/>
<glyph d="M-51 -205v65q42 -5 85 -5q47 0 70 28.5t23 98.5v518h74v-532q0 -82 -40.5 -130.5t-131.5 -48.5q-57 0 -80 6z" glyph-name="uni0237" horiz-adv-x="313" unicode="ȷ"/>
<glyph d="M-94 580l-180 150h100l164 -150h-84z" glyph-name="gravecomb" unicode="̀"/>
<glyph d="M-107 730h100l-179 -150h-85z" glyph-name="acutecomb" unicode="́"/>
<glyph d="M-97 580l-133 116l-132 -116h-80l168 150h89l168 -150h-80z" glyph-name="uni0302" unicode="̂"/>
<glyph d="M-249.5 595q-24.5 10 -58.5 30q-28 17 -46 24.5t-41 7.5q-33 0 -54 -17t-27 -48l-56 9q10 53 46 82t93 29q36 0 60.5 -10t58.5 -30q27 -17 45.5 -25t41.5 -8q32 0 53.5 17t26.5 48l56 -8q-9 -53 -45 -82t-93 -29q-36 0 -60.5 10z" glyph-name="tildecomb" unicode="̃"/>
<glyph d="M-504 669h455v-54h-455v54z" glyph-name="uni0304" unicode="̄"/>
<glyph d="M-141 704h90v-113h-90v113z" glyph-name="uni0307" unicode="̇"/>
<glyph d="M-466 707h98v-110h-98v110zM-150 707h99v-110h-99v110z" glyph-name="uni0308" unicode="̈"/>
<glyph d="M-287 586q-41 27 -41 73q0 45 41 72t111 27t111 -27t41 -72q0 -46 -41 -73t-111 -27t-111 27zM-101 614.5q27 16.5 27 44.5q0 27 -27 43.5t-75 16.5t-75.5 -16.5t-27.5 -43.5q0 -28 27.5 -44.5t75.5 -16.5t75 16.5z" glyph-name="uni030A" unicode="̊"/>
<glyph d="M-169 6l-46 -59q23 15 62 15q48 0 75.5 -20t27.5 -55q0 -37 -35.5 -60.5t-91.5 -23.5q-46 0 -78.5 16t-45.5 45l54 9q8 -14 26.5 -22t44.5 -8q31 0 48.5 11.5t17.5 31.5t-16 30.5t-46 10.5q-36 0 -65 -16l-39 11l55 84h52z" glyph-name="uni0327" unicode="̧"/>
<glyph d="M756 500v-500h-73v143q-33 -79 -107.5 -120.5t-180.5 -41.5q-147 0 -218 72v-248h-65v695h74v-249q0 -115 63 -161t157 -46t156 34.5t91.5 87.5t29.5 109v225h73z" glyph-name="uni03BC" horiz-adv-x="868" unicode="μ"/>
<glyph d="M36 275l245 207h91l-240 -206l237 -209h-92z" glyph-name="guilsinglleft" horiz-adv-x="394" unicode="‹"/>
<glyph d="M364 727h79l-590 -744h-80z" glyph-name="fraction" horiz-adv-x="217" unicode="⁄"/>
<glyph d="M108.5 324.5q-49.5 28.5 -49.5 80.5q0 60 49 84.5t137 29.5l222 14v7q0 104 -152 104q-72 0 -114.5 -21.5t-51.5 -65.5h-76q10 62 75.5 97.5t166.5 35.5q114 0 169 -40t55 -119v-95q0 -81 7 -126h-72q-4 42 -4 81q-25 -44 -84 -69.5t-142 -25.5q-86 0 -135.5 28.5z M370.5 357q46.5 16 72.5 44.5t26 63.5v32l-202 -13q-76 -5 -105.5 -22.5t-29.5 -51.5t36 -51.5t99 -17.5q57 0 103.5 16z" glyph-name="a.sups" horiz-adv-x="622"/>
<glyph d="M165.5 320q-59.5 24 -92 69t-32.5 104t32.5 103.5t92 69t137.5 24.5t137 -24.5t91.5 -69t32.5 -103.5t-32 -104t-91.5 -69t-137.5 -24t-137.5 24zM439.5 385.5q51.5 39.5 51.5 107.5q0 67 -51.5 106.5t-136.5 39.5t-136.5 -39.5t-51.5 -106.5q0 -68 51.5 -107.5 t136.5 -39.5t136.5 39.5z" glyph-name="o.sups" horiz-adv-x="605"/>
<glyph d="M41 43l28 12q114 51 172 81t95 64t37 74q0 35 -33.5 56.5t-93.5 21.5q-55 0 -93 -19t-38 -64q0 -9 1 -16l-70 4q-1 7 -1 19q0 63 57 94t143 31q90 0 145 -29.5t55 -90.5q0 -69 -80.5 -122.5t-216.5 -109.5h309v-49h-416v43z" glyph-name="two.dnom" horiz-adv-x="505"/>
<glyph d="M403 94v-94h-69v94h-310v44l307 249h72v-248h113v-45h-113zM89 139h245v198z" glyph-name="four.dnom" horiz-adv-x="535"/>
<glyph d="M160 626q-18 -25 -48.5 -37t-63.5 -12h-21v57h12q48 0 84.5 20.5t48.5 56.5h58v-387h-70v302z" glyph-name="one.numr" horiz-adv-x="322"/>
<glyph d="M101 347q-57 36 -59 97l70 3q1 -41 39.5 -65t103.5 -24q64 0 104.5 18.5t40.5 57.5q0 31 -31.5 47.5t-109.5 16.5h-46v48h45q131 0 131 61q0 35 -37.5 52.5t-97.5 17.5q-67 0 -103 -23t-37 -67l-70 3q2 62 58 98.5t153 36.5q92 0 148.5 -28.5t56.5 -83.5 q0 -43 -33.5 -63.5t-85.5 -24.5q63 -4 97 -27.5t34 -63.5q0 -59 -60 -91t-157 -32t-154 36z" glyph-name="three.numr" horiz-adv-x="518"/>
</font>
</defs>
</svg>
